<?xml version="1.0" standalone="no"?>
<!DOCTYPE svg PUBLIC "-//W3C//DTD SVG 20010904//EN"
 "http://www.w3.org/TR/2001/REC-SVG-20010904/DTD/svg10.dtd">
<svg version="1.0" xmlns="http://www.w3.org/2000/svg"
 width="700.000000pt" height="700.000000pt" viewBox="0 0 700.000000 700.000000"
 preserveAspectRatio="xMidYMid meet">
<metadata>
Created by potrace 1.14, written by Peter Selinger 2001-2017
</metadata>
<g transform="translate(0.000000,700.000000) scale(0.100000,-0.100000)"
fill="#000000" stroke="none">
<path d="M3712 6982 c-107 -38 -202 -122 -303 -265 -26 -38 -103 -163 -171
-278 -137 -234 -227 -362 -285 -402 -90 -62 -208 -56 -543 29 -389 99 -509
117 -636 95 -198 -35 -304 -171 -304 -391 0 -113 18 -216 85 -480 66 -266 85
-363 85 -449 0 -91 -13 -131 -61 -185 -56 -63 -125 -111 -394 -271 -343 -205
-445 -290 -509 -425 -27 -57 -31 -76 -31 -150 0 -76 4 -93 32 -150 65 -131
171 -223 454 -391 93 -56 169 -103 169 -106 0 -3 -31 -38 -68 -77 -121 -128
-227 -309 -286 -489 -27 -83 -56 -221 -56 -267 0 -26 -5 -30 -69 -49 -176 -53
-331 -149 -472 -290 -472 -471 -464 -1214 18 -1672 97 -93 175 -147 296 -204
179 -86 344 -119 576 -113 163 4 179 11 188 90 5 40 2 49 -25 79 l-29 33 -199
7 c-179 6 -208 9 -284 34 -176 57 -301 135 -424 266 -170 181 -256 399 -256
653 0 236 68 432 211 613 130 163 350 296 544 329 53 9 92 29 106 55 6 12 15
65 20 119 55 583 538 1030 1114 1030 299 0 572 -114 785 -329 93 -94 156 -182
219 -308 45 -91 69 -113 122 -113 28 0 48 9 81 36 108 91 210 148 333 187 291
91 596 32 838 -163 252 -202 388 -546 337 -855 -15 -90 3 -119 106 -170 146
-73 248 -165 324 -293 142 -241 131 -554 -28 -784 -81 -118 -223 -225 -363
-274 l-84 -29 -1520 -5 c-1424 -5 -1523 -6 -1547 -22 -30 -20 -48 -71 -41
-112 3 -14 19 -37 35 -51 l30 -25 1482 0 c1588 0 1564 -1 1709 49 310 107 534
357 613 686 27 111 23 305 -9 426 -25 96 -88 236 -134 296 -28 39 -25 39 74
19 292 -61 480 -1 566 182 24 52 31 81 35 157 6 126 -8 209 -89 539 -56 225
-71 302 -76 388 -12 209 17 239 514 533 275 162 389 263 452 395 22 46 26 69
26 140 0 77 -3 92 -34 155 -65 132 -190 234 -531 435 -289 170 -381 242 -416
325 -16 40 -18 153 -3 245 5 36 36 171 69 300 77 308 94 408 88 529 -10 182
-84 292 -233 347 -39 14 -78 18 -175 17 -142 0 -241 -19 -540 -102 -224 -63
-265 -71 -354 -71 -98 0 -155 21 -222 83 -67 61 -106 117 -208 300 -215 386
-327 527 -475 595 -74 34 -176 40 -249 14z m163 -202 c46 -17 145 -121 210
-220 34 -52 108 -176 165 -275 126 -222 169 -283 256 -364 145 -136 306 -168
564 -111 47 11 162 40 255 65 240 64 372 88 466 83 128 -5 169 -52 169 -194 0
-102 -17 -193 -85 -459 -166 -645 -122 -751 460 -1091 294 -171 419 -269 445
-349 42 -127 -47 -221 -409 -436 -356 -212 -466 -298 -529 -417 -77 -147 -71
-292 32 -695 69 -269 86 -359 86 -461 0 -135 -39 -184 -154 -193 -88 -8 -178
8 -447 74 l-225 57 4 80 c5 104 -19 261 -59 380 l-31 93 96 93 c163 158 277
314 381 523 137 276 196 532 196 852 -1 417 -117 780 -358 1118 -150 211 -503
517 -596 517 -43 0 -97 -57 -97 -103 0 -55 7 -65 89 -119 371 -248 633 -636
721 -1066 92 -454 3 -917 -249 -1294 -76 -114 -201 -261 -256 -304 l-36 -27
-17 24 c-46 65 -140 164 -211 221 -301 240 -688 311 -1046 192 -82 -27 -204
-86 -265 -127 l-34 -24 -47 76 c-122 197 -309 366 -526 476 -166 83 -337 128
-543 143 l-105 7 -8 50 c-14 79 -13 391 2 480 114 722 634 1271 1351 1427 93
20 131 22 335 22 209 -1 241 -3 345 -26 132 -30 166 -24 194 31 20 38 20 64 1
101 -20 38 -32 44 -145 68 -220 47 -507 54 -720 17 -444 -79 -855 -316 -1144
-663 -310 -374 -474 -882 -436 -1354 6 -68 13 -137 16 -153 5 -30 5 -30 -68
-49 -97 -25 -223 -76 -309 -125 -39 -23 -75 -41 -80 -41 -15 0 -315 177 -413
244 -209 142 -260 240 -183 352 51 75 141 141 392 290 278 166 368 229 448
313 160 172 165 314 28 851 -122 483 -99 600 116 600 91 0 188 -18 448 -85
261 -67 365 -85 480 -85 153 0 243 36 345 139 77 77 130 155 275 401 139 237
194 317 259 382 71 72 135 93 201 68z"/>
</g>
</svg>
